<?xml version="1.0" encoding="UTF-8"?>
<svg id="Capa_2" data-name="Capa 2" xmlns="http://www.w3.org/2000/svg" viewBox="0 0 265.17 45.33">
  <defs>
    <style>
      .cls-1 {
        fill: #dcd9d7;
      }
    </style>
  </defs>
  <g id="Capa_1-2" data-name="Capa 1">
    <g>
      <g>
        <path class="cls-1" d="M61.12,41.5c-1.96,0-3.7-.34-5.24-1.03-1.53-.69-2.74-1.71-3.63-3.06s-1.33-3.04-1.33-5.07c0-1.71.31-3.14.94-4.3.63-1.16,1.48-2.09,2.56-2.8s2.31-1.24,3.69-1.6c1.38-.36,2.83-.61,4.35-.76,1.79-.19,3.22-.36,4.32-.53,1.09-.17,1.88-.42,2.38-.75s.74-.83.74-1.48v-.12c0-1.27-.4-2.24-1.19-2.94-.79-.69-1.92-1.04-3.37-1.04-1.53,0-2.75.34-3.66,1.01-.91.67-1.5,1.52-1.8,2.53l-7.87-.64c.4-1.86,1.19-3.48,2.36-4.85,1.17-1.37,2.69-2.42,4.55-3.16,1.86-.74,4.01-1.11,6.46-1.11,1.71,0,3.34.2,4.91.6,1.57.4,2.96,1.02,4.18,1.86,1.22.84,2.18,1.92,2.89,3.23s1.06,2.88,1.06,4.71v20.7h-8.07v-4.26h-.24c-.49.96-1.15,1.8-1.98,2.53-.83.73-1.82,1.29-2.98,1.7-1.16.41-2.5.61-4.02.61ZM63.55,35.63c1.25,0,2.36-.25,3.32-.75.96-.5,1.71-1.18,2.26-2.03.55-.85.82-1.82.82-2.9v-3.26c-.27.17-.63.33-1.09.47-.46.14-.98.27-1.55.38-.57.11-1.15.21-1.72.3-.57.09-1.09.16-1.56.23-1,.15-1.87.38-2.62.7s-1.33.75-1.74,1.29c-.41.54-.62,1.21-.62,2.01,0,1.16.42,2.04,1.27,2.65.85.61,1.92.91,3.23.91Z"/>
        <path class="cls-1" d="M91.28,0v40.92h-8.51V0h8.51Z"/>
        <path class="cls-1" d="M104.39,41.5c-1.96,0-3.7-.34-5.24-1.03-1.53-.69-2.74-1.71-3.63-3.06s-1.33-3.04-1.33-5.07c0-1.71.31-3.14.94-4.3.63-1.16,1.48-2.09,2.56-2.8s2.31-1.24,3.69-1.6c1.38-.36,2.83-.61,4.35-.76,1.79-.19,3.22-.36,4.32-.53,1.09-.17,1.88-.42,2.38-.75s.74-.83.74-1.48v-.12c0-1.27-.4-2.24-1.19-2.94-.79-.69-1.92-1.04-3.37-1.04-1.53,0-2.75.34-3.66,1.01-.91.67-1.5,1.52-1.8,2.53l-7.87-.64c.4-1.86,1.19-3.48,2.36-4.85,1.17-1.37,2.69-2.42,4.55-3.16,1.86-.74,4.01-1.11,6.46-1.11,1.71,0,3.34.2,4.91.6,1.57.4,2.96,1.02,4.18,1.86,1.22.84,2.18,1.92,2.89,3.23s1.06,2.88,1.06,4.71v20.7h-8.07v-4.26h-.24c-.49.96-1.15,1.8-1.98,2.53-.83.73-1.82,1.29-2.98,1.7-1.16.41-2.5.61-4.02.61ZM106.83,35.63c1.25,0,2.36-.25,3.32-.75.96-.5,1.71-1.18,2.26-2.03.55-.85.82-1.82.82-2.9v-3.26c-.27.17-.63.33-1.09.47-.46.14-.98.27-1.55.38-.57.11-1.15.21-1.72.3-.57.09-1.09.16-1.56.23-1,.15-1.87.38-2.62.7s-1.33.75-1.74,1.29c-.41.54-.62,1.21-.62,2.01,0,1.16.42,2.04,1.27,2.65.85.61,1.92.91,3.23.91Z"/>
        <path class="cls-1" d="M126.04,40.92V10.23h8.11v5.42h.36c.64-1.8,1.71-3.22,3.2-4.26,1.49-1.04,3.28-1.56,5.36-1.56s3.9.52,5.38,1.57,2.46,2.46,2.96,4.25h.32c.63-1.76,1.76-3.17,3.41-4.23,1.65-1.06,3.59-1.59,5.84-1.59,2.86,0,5.19.91,6.98,2.73s2.69,4.39,2.69,7.72v20.64h-8.49v-18.96c0-1.71-.45-2.98-1.36-3.84-.91-.85-2.04-1.28-3.4-1.28-1.54,0-2.75.49-3.62,1.47-.87.98-1.3,2.27-1.3,3.87v18.74h-8.25v-19.14c0-1.51-.43-2.7-1.29-3.6-.86-.89-1.99-1.34-3.39-1.34-.95,0-1.79.24-2.55.71-.75.47-1.35,1.13-1.79,1.98-.44.85-.66,1.84-.66,2.97v18.42h-8.51Z"/>
        <path class="cls-1" d="M188.74,41.52c-3.16,0-5.87-.64-8.14-1.93-2.27-1.29-4.02-3.11-5.25-5.48s-1.84-5.17-1.84-8.4.61-5.93,1.84-8.31c1.23-2.38,2.95-4.24,5.19-5.58,2.23-1.33,4.85-2,7.86-2,2.02,0,3.91.32,5.66.97s3.28,1.62,4.6,2.91c1.31,1.29,2.33,2.91,3.07,4.87s1.1,4.23,1.1,6.84v2.34h-25.92v-5.28h17.9c0-1.23-.27-2.31-.8-3.26s-1.27-1.69-2.21-2.23c-.94-.54-2.03-.81-3.27-.81s-2.43.3-3.43.89c-.99.59-1.77,1.39-2.33,2.38-.56.99-.85,2.1-.86,3.31v5.02c0,1.52.28,2.83.85,3.94.57,1.11,1.37,1.96,2.41,2.56,1.04.6,2.27.9,3.7.9.95,0,1.81-.13,2.6-.4.79-.27,1.46-.67,2.02-1.2.56-.53.99-1.19,1.28-1.96l7.87.52c-.4,1.89-1.22,3.54-2.45,4.95-1.23,1.41-2.82,2.5-4.76,3.28s-4.17,1.17-6.7,1.17Z"/>
        <path class="cls-1" d="M217.2,41.42c-2.33,0-4.44-.6-6.32-1.81-1.89-1.21-3.38-2.98-4.48-5.34-1.1-2.35-1.65-5.24-1.65-8.66s.57-6.44,1.7-8.78c1.13-2.34,2.64-4.09,4.53-5.26,1.88-1.17,3.95-1.75,6.2-1.75,1.72,0,3.15.29,4.31.87,1.15.58,2.08,1.3,2.8,2.16s1.26,1.7,1.63,2.53h.26V0h8.49v40.92h-8.39v-4.92h-.36c-.4.85-.96,1.7-1.69,2.53-.73.83-1.67,1.52-2.82,2.07-1.15.55-2.55.82-4.21.82ZM219.89,34.65c1.37,0,2.53-.38,3.49-1.13.95-.75,1.69-1.81,2.2-3.17s.77-2.95.77-4.78-.25-3.41-.76-4.76c-.51-1.35-1.24-2.38-2.2-3.12-.96-.73-2.12-1.1-3.5-1.1s-2.58.38-3.54,1.14c-.96.76-1.69,1.81-2.18,3.16-.49,1.35-.74,2.9-.74,4.68s.25,3.36.75,4.73c.5,1.37,1.23,2.43,2.18,3.2.95.77,2.13,1.15,3.53,1.15Z"/>
        <path class="cls-1" d="M247.89,41.5c-1.96,0-3.7-.34-5.24-1.03-1.53-.69-2.74-1.71-3.63-3.06s-1.33-3.04-1.33-5.07c0-1.71.31-3.14.94-4.3.63-1.16,1.48-2.09,2.56-2.8s2.31-1.24,3.69-1.6c1.38-.36,2.83-.61,4.35-.76,1.79-.19,3.22-.36,4.32-.53,1.09-.17,1.88-.42,2.38-.75s.74-.83.74-1.48v-.12c0-1.27-.4-2.24-1.19-2.94-.79-.69-1.92-1.04-3.37-1.04-1.53,0-2.75.34-3.66,1.01-.91.67-1.5,1.52-1.8,2.53l-7.87-.64c.4-1.86,1.19-3.48,2.36-4.85,1.17-1.37,2.69-2.42,4.55-3.16,1.86-.74,4.01-1.11,6.46-1.11,1.71,0,3.34.2,4.91.6,1.57.4,2.96,1.02,4.18,1.86,1.22.84,2.18,1.92,2.89,3.23s1.06,2.88,1.06,4.71v20.7h-8.07v-4.26h-.24c-.49.96-1.15,1.8-1.98,2.53-.83.73-1.82,1.29-2.98,1.7-1.16.41-2.5.61-4.02.61ZM250.33,35.63c1.25,0,2.36-.25,3.32-.75.96-.5,1.71-1.18,2.26-2.03.55-.85.82-1.82.82-2.9v-3.26c-.27.17-.63.33-1.09.47-.46.14-.98.27-1.55.38-.57.11-1.15.21-1.72.3-.57.09-1.09.16-1.56.23-1,.15-1.87.38-2.62.7s-1.33.75-1.74,1.29c-.41.54-.62,1.21-.62,2.01,0,1.16.42,2.04,1.27,2.65.85.61,1.92.91,3.23.91Z"/>
      </g>
      <path class="cls-1" d="M40.85,19.53c-.44-1.75-1.09-3.41-1.96-4.99-1.41-2.54-3.28-4.7-5.59-6.47-1.98-1.51-4.17-2.63-6.56-3.36-1.47-.45-2.96-.73-4.49-.83-1.17-.08-2.35-.07-3.53.05-1.53.15-3.01.46-4.47.94-2.32.75-4.42,1.89-6.33,3.39-2.38,1.87-4.27,4.16-5.65,6.86-.77,1.5-1.34,3.08-1.73,4.73-.27,1.18-.45,2.37-.52,3.58-.07,1.31-.02,2.61.16,3.92.21,1.59.59,3.13,1.16,4.62.92,2.43,2.24,4.62,3.99,6.54,2.69,2.96,5.95,4.98,9.81,6.06.15.04.25.05.29-.14.12-.53.25-1.06.38-1.59.17-.7.35-1.4.52-2.1.23-.91.47-1.82.69-2.74.2-.82.38-1.65.55-2.48.1-.5.19-1.01.19-1.53,0-.52-.19-.92-.71-1.12-.23-.09-.46-.19-.69-.29-.71-.32-1.43-.63-1.93-1.27-.38-.48-.65-1.03-.96-1.57-.64-1.12-.63-2.34-.56-3.56,0-.16.08-.3.25-.36.16-.05.29,0,.4.11.15.13.23.31.29.49.1.32.05.65.08.98.02.27.07.51.34.65.5.26.87.65,1.11,1.16.26.56.69.78,1.29.78.78,0,1.51.21,2.2.55.51.25.88.63,1.04,1.19.18.61.23,1.24.27,1.87.1,1.91.1,3.82.08,6.18.01,1.47-.05,3.38-.08,5.3,0,.21.07.27.26.27.26,0,.51,0,.77-.03.15-.02.2-.07.19-.22-.02-.3-.03-.61-.04-.91-.08-2.49-.17-4.97-.21-7.46-.02-1.43-.03-2.85.13-4.27.11-.99.55-1.67,1.51-2.05.69-.27,1.4-.37,2.12-.42.47-.03.79-.24.99-.66.27-.55.65-.98,1.19-1.27.21-.11.3-.3.3-.54,0-.26.01-.53.04-.79.03-.31.13-.59.38-.8.26-.21.57-.09.61.24.08.71.07,1.42-.03,2.12-.15.97-.66,1.8-1.16,2.62-.37.61-.88,1.07-1.52,1.37-.44.21-.88.4-1.32.59-.6.26-.78.52-.78,1.18,0,.34.04.67.1,1,.25,1.43.57,2.83.89,4.24.39,1.72.77,3.44,1.15,5.17.04.18.11.23.29.18.38-.12.76-.23,1.14-.34,2.16-.68,4.15-1.71,5.96-3.07,3.54-2.66,5.98-6.1,7.35-10.3.52-1.59.82-3.23.93-4.89.14-2.19-.03-4.36-.57-6.49ZM36.54,17.07s-.67-1.75.53-2.87c.12-.11.3-.11.38,0l.4.54.39.54c.29.4.13,1.01-.35,1.36h0c.06-.02.16-.05.26-.09.32-.12.65-.04.82.2l.37.51c.07.1.03.25-.09.34l-.52.38c-.35.25-.79.31-1.12.14-.23-.11-.45-.23-.51-.26.02.06.06.31.09.56.05.37-.14.77-.48,1.02l-.52.38c-.12.09-.28.08-.35-.02l-.37-.51c-.17-.23-.14-.57.07-.84.07-.09.13-.17.17-.22h0c-.48.35-1.11.31-1.4-.09l-.39-.54-.4-.54c-.08-.11-.03-.28.12-.36,1.45-.8,2.9.38,2.9.38ZM13.94,12.96c2.24-1.01,4.25.92,4.25.92,0,0-.79-2.67,1.14-4.2.19-.15.46-.13.57.05l.52.85.52.85c.38.63.08,1.51-.68,1.97h0c.1-.02.24-.05.4-.1.49-.14.97.02,1.2.39l.49.8c.1.16.02.38-.17.5l-.82.5c-.55.33-1.2.36-1.68.08-.33-.19-.64-.39-.72-.45.02.09.05.47.07.84.04.55-.29,1.12-.84,1.45l-.82.5c-.19.12-.42.08-.52-.08l-.49-.8c-.22-.37-.14-.87.2-1.24.11-.12.21-.23.27-.31h0c-.75.46-1.68.33-2.07-.3l-.52-.85-.52-.85c-.11-.17,0-.43.22-.53ZM19.69,20.29c.12.11.16.28.1.41l-.14.28c-.03.05-.1.07-.17.04l-.28-.15c-.19-.1-.31-.28-.31-.46,0-.13,0-.25,0-.28-.02.02-.12.1-.23.17-.15.11-.37.11-.56.02l-.28-.15c-.07-.03-.1-.11-.07-.16l.14-.28c.07-.13.22-.19.39-.16.05.01.1.02.13.02h0c-.26-.13-.39-.42-.27-.64l.15-.3.15-.3c.03-.06.12-.08.19-.03.68.46.48,1.36.48,1.36,0,0,.62-.69,1.39-.41.08.03.12.11.09.17l-.15.3-.15.3c-.11.22-.42.29-.68.15h0s.06.06.1.09ZM7.57,12.57c1.26-1.12,2.96-.27,2.96-.27,0,0-1.06-1.58-.12-2.97.09-.14.27-.18.38-.09l.51.45.51.45c.38.33.36.97-.04,1.43h0c.06-.03.15-.08.24-.14.29-.19.64-.18.86,0l.48.42c.1.08.09.24,0,.36l-.43.49c-.29.33-.71.48-1.08.39-.25-.06-.5-.13-.56-.15.03.06.13.29.22.54.14.35.04.79-.25,1.12l-.43.49c-.1.11-.26.14-.35.05l-.48-.42c-.22-.19-.27-.54-.12-.85.05-.1.09-.19.12-.26h0c-.4.46-1.03.56-1.41.23l-.51-.45-.51-.45c-.11-.09-.09-.28.03-.39ZM4.61,16.85l.27-.47c.12-.22.4-.32.68-.25.09.02.18.04.23.05h0c-.44-.25-.64-.76-.43-1.12l.28-.5.28-.5c.06-.1.21-.12.33-.04,1.14.84.74,2.39.74,2.39,0,0,1.12-1.15,2.43-.62.13.05.19.2.14.3l-.28.5-.28.5c-.21.37-.74.47-1.18.22h0s.1.1.16.17c.21.21.26.49.14.71l-.27.47c-.05.09-.19.12-.3.06l-.48-.27c-.32-.18-.52-.5-.51-.82,0-.22.02-.43.02-.49-.04.03-.22.16-.4.28-.27.17-.65.17-.97-.01l-.48-.27c-.11-.06-.16-.19-.11-.28ZM2.16,21.25l-.25-.42-.25-.42c-.05-.09,0-.21.11-.26,1.11-.48,2.09.48,2.09.48,0,0-.37-1.32.59-2.06.09-.07.23-.06.28.03l.25.42.25.42c.18.31.03.75-.35.97h0s.12-.02.2-.05c.24-.06.48.02.59.2l.24.4c.05.08,0,.19-.09.24l-.41.24c-.27.16-.59.17-.83.03-.16-.1-.31-.2-.35-.23,0,.05.02.23.03.42.01.27-.15.55-.42.71l-.41.24c-.09.06-.21.04-.25-.04l-.24-.4c-.11-.18-.06-.43.11-.61.06-.06.11-.11.14-.15h0c-.37.22-.83.15-1.01-.16ZM11.4,25.12l-.75.6c-.5.4-1.15.51-1.66.28-.35-.15-.69-.31-.77-.36.03.09.11.46.18.83.1.54-.15,1.15-.65,1.55l-.75.6c-.17.14-.41.13-.52-.01l-.58-.74c-.27-.34-.25-.84.05-1.26.1-.13.18-.26.23-.34h0c-.69.55-1.63.53-2.09-.04l-.62-.78-.62-.78c-.13-.16-.06-.42.15-.55,2.1-1.28,4.33.39,4.33.39,0,0-1.11-2.55.61-4.31.17-.17.44-.18.57-.02l.62.78.62.78c.46.57.26,1.49-.43,2.04h0c.09-.03.23-.08.38-.14.47-.2.97-.1,1.23.24l.58.74c.12.15.07.37-.11.51ZM13.9,20.91h0c.05.05.13.13.21.22.27.27.34.64.19.93l-.35.62c-.07.12-.24.15-.39.07l-.63-.35c-.42-.23-.68-.65-.67-1.07,0-.29.02-.57.03-.64-.05.05-.29.2-.53.36-.35.23-.84.22-1.26-.01l-.63-.35c-.15-.08-.21-.25-.14-.37l.35-.62c.16-.28.52-.41.89-.32.12.03.23.05.3.07h0c-.58-.33-.83-.99-.56-1.47l.37-.65.37-.66c.08-.13.28-.16.42-.05,1.49,1.1.97,3.12.97,3.12,0,0,1.46-1.5,3.17-.8.17.07.25.25.18.39l-.37.66-.37.65c-.27.48-.96.61-1.54.28ZM25.38,25.43l-.97.56c-.64.37-1.41.39-1.96.04-.37-.24-.74-.48-.82-.55.02.11.04.54.06.99.03.65-.37,1.3-1.02,1.67l-.97.56c-.22.13-.49.08-.6-.11l-.55-.95c-.25-.43-.14-1.02.27-1.44.13-.14.25-.26.33-.35h0c-.89.52-1.97.33-2.4-.41l-.58-1.01-.58-1.01c-.12-.21,0-.5.27-.61,2.64-1.11,4.93,1.19,4.93,1.19,0,0-.85-3.13,1.44-4.87.23-.17.54-.14.66.07l.58,1.01.58,1.01c.43.74.05,1.77-.84,2.28h0c.11-.02.28-.06.47-.1.58-.15,1.13.05,1.38.49l.55.95c.11.19.01.44-.21.57ZM25.44,16.82c-.46.3-1.12.29-1.68-.02l-.84-.47c-.19-.11-.28-.33-.19-.49l.46-.82c.21-.37.69-.55,1.18-.43.16.04.31.07.4.09h0c-.77-.44-1.11-1.31-.75-1.95l.49-.87.49-.87c.1-.18.37-.21.56-.07,1.98,1.46,1.29,4.15,1.29,4.15,0,0,1.94-2,4.22-1.07.23.09.34.34.24.52l-.49.87-.49.87c-.36.64-1.28.81-2.05.38h0c.06.07.17.18.28.29.36.36.46.86.25,1.23l-.46.82c-.09.16-.32.2-.51.1l-.84-.47c-.56-.31-.91-.87-.89-1.42.01-.38.03-.75.04-.85-.07.06-.38.27-.7.48ZM31.99,22.25l-.34.6-.34.6c-.25.44-.88.56-1.41.26h0s.12.12.2.2c.25.25.31.59.17.85l-.32.56c-.06.11-.22.14-.35.07l-.57-.32c-.38-.21-.62-.6-.61-.98,0-.26.02-.52.03-.58-.05.04-.26.19-.48.33-.32.21-.77.2-1.15-.01l-.57-.32c-.13-.07-.19-.23-.13-.34l.32-.56c.14-.26.47-.38.81-.3.11.03.21.05.28.06h0c-.53-.3-.76-.9-.51-1.34l.34-.6.34-.6c.07-.12.25-.15.39-.05,1.36,1,.88,2.85.88,2.85,0,0,1.33-1.37,2.9-.73.15.06.23.23.16.35ZM31.45,13.09c-.04-.22-.07-.43-.07-.48-.03.04-.19.2-.34.35-.23.22-.6.29-.95.18l-.52-.17c-.12-.04-.19-.15-.16-.26l.17-.51c.08-.24.33-.39.62-.37.09,0,.18,0,.24,0h0c-.48-.16-.77-.62-.64-1.02l.18-.55.18-.55c.04-.11.19-.16.31-.1,1.28.61,1.19,2.21,1.19,2.21,0,0,.88-1.34,2.27-1.07.14.03.23.15.19.27l-.18.55-.18.55c-.13.4-.64.6-1.12.44h0s.12.08.19.14c.24.16.35.43.28.67l-.17.51c-.03.1-.16.15-.28.11l-.52-.17c-.35-.12-.61-.39-.66-.71ZM40.73,22.91l-.34.94-.34.94c-.25.69-1.13,1.01-1.96.72h0c.08.06.2.15.33.24.41.29.6.77.45,1.17l-.32.89c-.06.17-.28.26-.49.18l-.9-.32c-.6-.21-1.04-.71-1.12-1.25-.05-.38-.1-.75-.1-.84-.06.07-.33.33-.61.59-.41.38-1.06.48-1.66.26l-.9-.32c-.21-.07-.33-.28-.27-.45l.32-.89c.14-.4.58-.66,1.09-.62.16.01.31.02.41.02h0c-.83-.3-1.31-1.11-1.06-1.8l.34-.94.34-.94c.07-.19.33-.27.55-.16,2.19,1.11,1.96,3.88,1.96,3.88,0,0,1.58-2.29,3.98-1.76.24.05.39.28.32.47Z"/>
    </g>
  </g>
</svg>